<svg width="590" height="954" viewBox="0 0 590 954" fill="none" xmlns="http://www.w3.org/2000/svg">
<g clip-path="url(#clip0_107_5)">
<rect x="553" width="37" height="720" fill="#74AA9C"/>
<rect y="173" width="37" height="547" fill="#74AA9C"/>
<rect x="37" y="720" width="37" height="516" transform="rotate(-90 37 720)" fill="#74AA9C"/>
<rect x="177" y="37" width="37" height="376" transform="rotate(-90 177 37)" fill="#74AA9C"/>
<rect x="140" width="37" height="173" fill="#74AA9C"/>
<rect x="140.231" width="40.5368" height="195.488" transform="rotate(45 140.231 0)" fill="#74AA9C"/>
<rect y="173" width="35" height="140" transform="rotate(-90 0 173)" fill="#74AA9C"/>
<path d="M21.6289 903V753.109H52.2695V809.422H53.0977C57.4453 800.312 66.3477 789.133 85.1875 789.133C110.031 789.133 130.941 808.387 130.941 846.895C130.941 884.367 110.859 904.863 85.1875 904.863C66.7617 904.863 57.4453 894.305 53.0977 884.988H51.8555V903H21.6289ZM51.6484 846.688C51.6484 866.977 60.3438 880.434 75.457 880.434C91.1914 880.434 99.4727 866.562 99.4727 846.688C99.4727 827.02 91.1914 813.562 75.457 813.562C60.1367 813.562 51.6484 826.398 51.6484 846.688ZM181.25 753.109V903H150.609V753.109H181.25ZM255.574 905.277C221.621 905.277 200.504 881.883 200.504 847.102C200.504 812.32 221.621 789.133 255.574 789.133C289.527 789.133 310.852 812.32 310.852 847.102C310.852 881.883 289.527 905.277 255.574 905.277ZM255.781 881.469C271.516 881.469 279.59 866.77 279.59 847.102C279.59 827.227 271.516 812.527 255.781 812.527C239.84 812.527 231.559 827.227 231.559 847.102C231.559 866.77 239.84 881.469 255.781 881.469ZM380.621 947.512C349.566 947.512 330.52 933.641 328.656 912.316H358.883C360.539 921.219 369.027 925.359 381.242 925.359C395.527 925.359 405.051 919.355 405.051 903.621V883.125H403.602C399.461 892.234 389.523 901.344 371.512 901.344C346.047 901.344 325.758 883.539 325.758 846.066C325.758 807.973 346.668 789.133 371.512 789.133C390.352 789.133 399.461 800.312 403.602 809.422H404.844V790.582H435.277V904.242C435.277 932.812 412.504 947.512 380.621 947.512ZM381.035 878.363C396.355 878.363 405.051 866.355 405.051 846.48C405.051 826.398 396.355 813.562 381.035 813.562C365.508 813.562 357.227 827.02 357.227 846.48C357.227 865.941 365.508 878.363 381.035 878.363ZM459.086 903V790.582H489.727V903H459.086ZM474.406 775.883C465.09 775.883 457.637 768.844 457.637 760.355C457.637 751.66 465.09 744.621 474.406 744.621C483.516 744.621 490.969 751.66 490.969 760.355C490.969 768.844 483.516 775.883 474.406 775.883ZM572.746 790.582V813.562H551.629V868.426C551.629 877.328 555.977 879.605 562.188 879.812C565.293 879.812 570.676 879.605 574.402 879.191V903.414C571.09 904.035 565.707 904.449 558.047 904.449C535.895 904.449 520.781 894.512 520.988 872.773V813.562H505.461V790.582H520.988V763.668H551.629V790.582H572.746Z" fill="black"/>
</g>
<defs>
<clipPath id="clip0_107_5">
<rect width="590" height="954" fill="white"/>
</clipPath>
</defs>
</svg>
